<svg xmlns="http://www.w3.org/2000/svg" width="256" height="256" viewBox="0 0 64 64"><path d="M30.9 3C19.937 3 11 11.937 11 22.9c0 5.946 2.75 9.794 4.678 11.79a1 1 0 0 0 1.209.177l4.607-2.594a1 1 0 0 0 .045-1.716c-.094-.06-.905-.561-1.783-1.784C18.877 27.551 18 25.677 18 22.9 18 15.778 23.779 10 30.9 10c6.39 0 10.456 2.189 13.8 7.299l-3.884 2.33c-.773-1.28-1.644-2.538-2.804-3.543C36.585 14.85 34.742 14 32.5 14c-5.23 0-9.5 4.27-9.5 9.5 0 5.72 4.929 9.729 6.88 11.367l.352.297c2.514 2.152 3.77 4.312 3.77 5.307 0 1.387-1.112 2.5-2.5 2.5-.491 0-.862-.182-1.502-.979-.64-.796-1.406-2.16-2.37-4.086a3.495 3.495 0 0 0-4.929-1.435l-10 6a3.514 3.514 0 0 0-1.33 4.566c4.682 9.365 11.785 13.936 21.729 13.936 10.963 0 19.9-8.938 19.9-19.903 0-5.677-2.493-9.645-4.404-11.73a1 1 0 0 0-1.17-.227l-4.858 2.328a1 1 0 0 0-.103 1.747c-.094-.06.208.14.545.453.336.313.782.785 1.224 1.427C45.12 36.352 46 38.295 46 41.072c0 7.123-5.778 12.9-12.9 12.9-6.39 0-10.456-2.188-13.8-7.298l3.884-2.33c.773 1.28 1.644 2.536 2.804 3.54 1.427 1.237 3.27 2.089 5.512 2.089 5.23 0 9.5-4.271 9.5-9.5 0-3.625-2.204-7.193-6.225-10.633a1 1 0 0 0-.004-.004l-.388-.328a1 1 0 0 0-.004-.002c-.708-.594-1.843-1.554-2.777-2.662C30.667 25.735 30 24.502 30 23.5c0-1.388 1.112-2.5 2.5-2.5.491 0 .862.182 1.502.979.64.796 1.405 2.162 2.367 4.087a3.495 3.495 0 0 0 2.152 1.795 1 1 0 0 0 .002 0 3.513 3.513 0 0 0 2.776-.359l10-6a3.514 3.514 0 0 0 1.33-4.566C47.947 7.57 40.844 3 30.9 3zm0 2c9.357 0 15.493 3.935 19.94 12.83.353.71.109 1.55-.57 1.957l-10 6a1.496 1.496 0 0 1-2.111-.615c-.98-1.96-1.761-3.404-2.598-4.445C34.723 19.685 33.68 19 32.5 19c-2.472 0-4.5 2.028-4.5 4.5 0 1.794.992 3.352 2.072 4.633 1.08 1.281 2.313 2.31 3.022 2.904l.385.326C37.25 34.593 39 37.67 39 40.473c0 4.144-3.355 7.5-7.5 7.5-1.756 0-3.057-.61-4.201-1.6-1.144-.99-2.092-2.388-2.918-3.875a1 1 0 0 0-1.389-.371l-5.664 3.398a1 1 0 0 0-.344 1.37c3.713 6.214 8.865 9.078 16.116 9.078 8.207 0 14.9-6.693 14.9-14.9 0-3.206-1.044-5.58-2.12-7.14-.403-.584-.773-.95-1.132-1.318l2.762-1.322C49.097 33.189 51 36.365 51 41.07c0 9.88-8.022 17.903-17.9 17.903-9.357 0-15.493-3.935-19.94-12.83-.355-.71-.11-1.55.57-1.957l9.999-6c.358-.216.79-.272 1.193-.155.4.116.733.395.92.768a1 1 0 0 0 0 .002c.98 1.96 1.762 3.404 2.6 4.445.837 1.041 1.878 1.725 3.06 1.725 2.472 0 4.5-2.028 4.5-4.5 0-2.236-1.751-4.5-4.477-6.832a1 1 0 0 0-.005-.004l-.354-.3C29.214 31.699 25 28.033 25 23.5c0-4.145 3.355-7.5 7.5-7.5 1.756 0 3.057.609 4.201 1.6 1.144.99 2.092 2.388 2.918 3.875a1 1 0 0 0 1.389.37l5.664-3.398a1 1 0 0 0 .344-1.369C43.303 10.863 38.15 8 30.9 8 22.694 8 16 14.693 16 22.9c0 3.206 1.048 5.533 2.133 7.041.577.804.792.846 1.244 1.229l-2.691 1.516C15.03 30.834 13 27.812 13 22.9 13 13.022 21.022 5 30.9 5zM7.236 15.166a1 1 0 0 0-.27 1.943l1.888.662a1.003 1.003 0 0 0 1.275-.613 1 1 0 0 0-.613-1.273l-1.887-.662a.98.98 0 0 0-.393-.057zm-.931 4.7a1.003 1.003 0 0 0-1.125.857.999.999 0 0 0 .855 1.125l1.983.27a1 1 0 0 0 .268-1.982l-1.981-.27zm46.574 4.142a.995.995 0 0 0-.621.217l-1.569 1.242a1 1 0 1 0 1.243 1.566l1.568-1.24a1.001 1.001 0 0 0-.621-1.785zm-44.943.54-1.997.13a1 1 0 0 0 .127 1.996l1.997-.13a1 1 0 0 0-.127-1.995zm47.54 3.522a.977.977 0 0 0-.45.11l-1.784.904a.999.999 0 0 0-.44 1.344.997.997 0 0 0 1.344.44l1.784-.905a1 1 0 0 0-.453-1.893zm-46.619.846a.98.98 0 0 0-.396.027l-1.93.528a1 1 0 1 0 .526 1.93l1.93-.528a1 1 0 0 0-.13-1.957zm48.358 3.656c-.087 0-.178.011-.266.035l-1.93.528a1 1 0 0 0-.7 1.226.998.998 0 0 0 1.228.703l1.93-.527a1 1 0 0 0-.262-1.965zm-46.97.461a.999.999 0 0 0-.386.108l-1.783.904a1 1 0 1 0 .904 1.783l1.784-.904a.999.999 0 0 0 .44-1.344.997.997 0 0 0-.96-.547zm2.564 3.73a.99.99 0 0 0-.735.212l-1.568 1.242a1 1 0 1 0 1.242 1.566l1.568-1.24a1.001 1.001 0 0 0-.507-1.78zm45.195.569-.065.002-1.996.129a1 1 0 0 0 .127 1.996l1.996-.129a1.001 1.001 0 0 0-.062-1.998zm-2.15 4.55a1 1 0 0 0-.133 1.991l1.98.27a1.003 1.003 0 0 0 1.125-.858.999.999 0 0 0-.855-1.125l-1.983-.27a1.025 1.025 0 0 0-.134-.007zm-1.032 4.298a1 1 0 0 0-.332 1.943l1.889.662a.995.995 0 0 0 1.273-.611 1.002 1.002 0 0 0-.613-1.276l-1.887-.662a.975.975 0 0 0-.33-.056z"/></svg>