<svg width="24" height="24" viewBox="0 0 24 24" fill="none" xmlns="http://www.w3.org/2000/svg">
<path fill-rule="evenodd" clip-rule="evenodd" d="M11.8372 1.6499C9.00073 1.6499 6.70066 3.94955 6.69998 6.7859L6.69998 6.78718H7.44998L6.69998 6.78463L6.69998 6.7859C6.69108 9.614 8.97538 11.914 11.8038 11.9235L11.8064 11.9235H11.8372C14.6742 11.9235 16.9736 9.62412 16.9736 6.78718C16.9736 3.95044 14.6744 1.6499 11.8372 1.6499ZM8.19998 6.78718C8.19998 4.77866 9.82874 3.1499 11.8372 3.1499C13.8456 3.1499 15.4736 4.77846 15.4736 6.78718C15.4736 8.79569 13.8449 10.4235 11.8364 10.4235H11.8076C9.80792 10.416 8.1932 8.78969 8.19998 6.78972V6.78718ZM5.75 18.7865C5.75 17.9893 6.30533 17.0844 7.44188 16.3384C8.55835 15.6056 10.1244 15.1118 11.8445 15.1118C13.5556 15.1118 15.1226 15.601 16.2421 16.3297C17.3822 17.0718 17.9391 17.9716 17.9391 18.7659C17.9391 19.1511 17.8152 19.4376 17.5916 19.6787C17.3521 19.9371 16.9676 20.1736 16.411 20.3684C15.2884 20.7613 13.6825 20.9118 11.8445 20.9118C10.0152 20.9118 8.40853 20.7666 7.28249 20.378C6.72404 20.1853 6.3382 19.9507 6.09786 19.6939C5.87403 19.4548 5.75 19.1704 5.75 18.7865ZM11.8445 13.6118C9.85282 13.6118 7.99665 14.18 6.6188 15.0844C5.26103 15.9756 4.25 17.283 4.25 18.7865C4.25 19.553 4.52006 20.2033 5.00274 20.719C5.4689 21.217 6.10198 21.5574 6.79319 21.7959C8.16647 22.2698 9.98208 22.4118 11.8445 22.4118C13.7184 22.4118 15.5348 22.2643 16.9065 21.7842C17.597 21.5425 18.2278 21.1988 18.6916 20.6986C19.1714 20.1812 19.4391 19.5307 19.4391 18.7659C19.4391 17.2595 18.4196 15.9573 17.0604 15.0725C15.6806 14.1743 13.8253 13.6118 11.8445 13.6118Z" fill="#454545"/>
</svg>
